<svg xmlns="http://www.w3.org/2000/svg" viewBox="0 0 225 58"><defs><style>.cls-1{fill:#353a40;}.cls-2{fill:#fff;}</style></defs><title>Asset 3</title><g id="Layer_2" data-name="Layer 2"><g id="Layer_1-2" data-name="Layer 1"><rect class="cls-1" width="225" height="58"/><path class="cls-2" d="M49.21,34.94l2.71-1.19L52,34a.37.37,0,0,1,0,.2l.11.21.1.21a9,9,0,0,0,1.3,2.08,11.6,11.6,0,0,0,1,1.2,6.66,6.66,0,0,0,1.14.93l.6.29a1.54,1.54,0,0,0,.6.13.58.58,0,0,0,.29,0,.88.88,0,0,0,.23-.07.44.44,0,0,0,.29-.26,1.23,1.23,0,0,0,.07-.42v-.21a.41.41,0,0,0-.05-.21,1.39,1.39,0,0,0,0-.33,1.58,1.58,0,0,0-.1-.29.37.37,0,0,0-.06-.23.36.36,0,0,1,0-.13c-.41-1.29-.84-2.56-1.27-3.83s-.88-2.52-1.33-3.77c-.21-.62-.42-1.25-.65-1.89l-.65-1.9H63.77l.52,1.56a8.13,8.13,0,0,1,2.81-1.54,10.56,10.56,0,0,1,3.22-.49h.45a2.12,2.12,0,0,1,.44.05,13.21,13.21,0,0,1,4.05.86A14,14,0,0,1,78.75,28,12.23,12.23,0,0,1,82,31.77a9.24,9.24,0,0,1,1.27,4.63,8,8,0,0,1-.44,2.65,7.83,7.83,0,0,1-1.43,2.5,7.38,7.38,0,0,1-3,2.29,10.09,10.09,0,0,1-3.51.72h-.49a1.64,1.64,0,0,1-.45-.05,11,11,0,0,1-3.66-1,11.78,11.78,0,0,1-3.2-2.11,4.52,4.52,0,0,1-2.21,2.32,7.75,7.75,0,0,1-3.15.75h-.26q-5,0-7.67-2.73A24.74,24.74,0,0,1,49.21,34.94ZM65.7,29.8a8.09,8.09,0,0,0,.31,2,27.64,27.64,0,0,0,.93,2.81c.18.38.37.82.58,1.3a10.37,10.37,0,0,0,.78,1.51,13.59,13.59,0,0,0,2,2.76A3.58,3.58,0,0,0,73,41.44a.94.94,0,0,0,.93-.52,2.79,2.79,0,0,0,.26-1.3c0-.2,0-.43,0-.67a2.93,2.93,0,0,0-.13-.68,6.66,6.66,0,0,0-.16-.8c-.07-.26-.14-.52-.21-.76s-.15-.59-.23-.83-.15-.42-.18-.52A11.38,11.38,0,0,0,72.59,34c-.3-.54-.64-1.08-1-1.64a15.76,15.76,0,0,0-1.77-2.23,5.87,5.87,0,0,0-2-1.46,2.74,2.74,0,0,0-.52-.15,2.37,2.37,0,0,0-.52-.06c-.49,0-.79.13-.91.37A2.24,2.24,0,0,0,65.7,29.8Z"/><path class="cls-2" d="M22.12,28.18a5,5,0,0,1,.55-1.4,3.49,3.49,0,0,1,1.06-1.14A5.52,5.52,0,0,1,25.16,25a5.78,5.78,0,0,1,1.54-.21,9.46,9.46,0,0,1,1.17.08,6.33,6.33,0,0,1,1.22.29,13.5,13.5,0,0,1,2.63,1.14c.84.49,1.65,1,2.41,1.56a5.94,5.94,0,0,1,2.53-2.26,8.87,8.87,0,0,1,3.3-.86,7.47,7.47,0,0,1,.8-.05,6.33,6.33,0,0,1,.76.05,9.31,9.31,0,0,1,6.58,3,19.65,19.65,0,0,1,4,6.37l-2.6,1c-.07-.17-.15-.36-.26-.57a5,5,0,0,0-.31-.57,11.12,11.12,0,0,0-1.71-2.34,3.89,3.89,0,0,0-2.4-1.25,2.18,2.18,0,0,0-1,.13.73.73,0,0,0-.44.76v.26a.82.82,0,0,0,.1.36L47.76,44H38.14l-.21-.62-.21-.62c-.21-.56-.4-1.11-.57-1.67s-.36-1.12-.57-1.71a42.59,42.59,0,0,0-1.56-4,17.72,17.72,0,0,0-2.13-3.59,10.21,10.21,0,0,0-1.38-1.63,1.87,1.87,0,0,0-1.17-.6.58.58,0,0,0-.55.18,2,2,0,0,0-.39.7A4,4,0,0,1,28,32.81a3.42,3.42,0,0,1-2.08.73h-.16a3.64,3.64,0,0,1-2.57-1.12,4,4,0,0,1-1.17-3v-.57A2,2,0,0,1,22.12,28.18Z"/><path class="cls-2" d="M4,35l2.65-1.25c.34.76.73,1.51,1.14,2.23a8.19,8.19,0,0,0,1.61,2,2.54,2.54,0,0,0,.45.36l.44.32a5.07,5.07,0,0,0,.8.41,1.84,1.84,0,0,0,.71.16.7.7,0,0,0,.78-.83,2.76,2.76,0,0,0-.08-.6c0-.23-.11-.46-.18-.7-.28-.73-.54-1.47-.78-2.21s-.51-1.5-.78-2.27-.5-1.51-.76-2.26-.51-1.48-.75-2.21H6.52l-.93-2.49h2.8c-.2-.63-.42-1.26-.65-1.9l-.65-1.9c-.2-.62-.42-1.25-.65-1.87S6,18.72,5.79,18.1c.56.07,1.13.14,1.72.23s1.16.16,1.72.23c1.14.18,2.28.34,3.43.5s2.29.32,3.43.49c.17.52.35,1,.52,1.54s.35,1,.52,1.48.4,1,.57,1.53.35,1,.52,1.54h2.24l.88,2.49H19.11c.2.56.4,1.11.59,1.67s.38,1.11.55,1.66.36,1.16.55,1.72.39,1.11.59,1.66.27.92.39,1.4a12.56,12.56,0,0,1,.29,1.46c0,.17.06.34.08.49a4,4,0,0,1,0,.5,6.93,6.93,0,0,1-.23,1.82,5.77,5.77,0,0,1-.75,1.66A4.63,4.63,0,0,1,19,43.94a8.21,8.21,0,0,1-2.78.57h-.32a11.69,11.69,0,0,1-4.13-.67A9.82,9.82,0,0,1,8.71,42a13.34,13.34,0,0,1-2.4-2.81c-.65-1-1.26-2.12-1.82-3.23a4.37,4.37,0,0,0-.23-.49A4.37,4.37,0,0,1,4,35Z"/><path class="cls-2" d="M123.74,43.81a3.82,3.82,0,0,0,2-.56,1.33,1.33,0,0,0,.38-1V11l-.17-.17-15.13,33-15-33.32h-.17V42.28a1.33,1.33,0,0,0,.38,1,3.82,3.82,0,0,0,2,.56v1h-15v-1a3.82,3.82,0,0,0,2-.56,1.33,1.33,0,0,0,.38-1V2.67a1.33,1.33,0,0,0-.38-1,3.75,3.75,0,0,0-2-.55v-1H105.3v1q-2,.07-2,1.53c0,.05.17.51.51,1.36s.77,1.9,1.31,3.14,1.14,2.59,1.79,4l1.87,4.16c.59,1.34,1.12,2.51,1.57,3.53s.77,1.7.94,2q1.44-3.23,3-6.29T117,9c.82-1.7,1.49-3.11,2-4.25a8.07,8.07,0,0,0,.77-2.12q0-1.45-2-1.53v-1h23v1a3.75,3.75,0,0,0-2,.55,1.33,1.33,0,0,0-.38,1V42.28a1.33,1.33,0,0,0,.38,1,3.82,3.82,0,0,0,2,.56v1h-17Z"/><path class="cls-2" d="M169.93,41.82c-1.79,1.83-4.35,2.73-7.67,2.73H162a7.75,7.75,0,0,1-3.15-.75,4.49,4.49,0,0,1-2.21-2.31,11.75,11.75,0,0,1-3.2,2.1,11,11,0,0,1-3.66,1,1.63,1.63,0,0,1-.45.06h-.49a10.34,10.34,0,0,1-3.51-.73,7.3,7.3,0,0,1-3-2.29,7.83,7.83,0,0,1-1.43-2.5,8,8,0,0,1-.44-2.65,9.26,9.26,0,0,1,1.27-4.63A12.35,12.35,0,0,1,145,28.07a14.37,14.37,0,0,1,3.49-1.9,13.15,13.15,0,0,1,4.05-.86,2.12,2.12,0,0,1,.44,0h.45a10.62,10.62,0,0,1,3.22.5,8.27,8.27,0,0,1,2.81,1.53l.52-1.56h10.14l-.65,1.9c-.23.64-.44,1.27-.65,1.9-.45,1.24-.9,2.5-1.33,3.77s-.86,2.54-1.27,3.82a.31.31,0,0,1-.05.13.37.37,0,0,0-.06.23,1.9,1.9,0,0,0-.1.29,1,1,0,0,0-.05.34.39.39,0,0,0,0,.2v.21a1.23,1.23,0,0,0,.07.42.42.42,0,0,0,.29.26l.23.08a.59.59,0,0,0,.29,0,1.38,1.38,0,0,0,.6-.13l.6-.29a6.66,6.66,0,0,0,1.14-.93,10.64,10.64,0,0,0,1-1.2,10,10,0,0,0,.81-1.14,8,8,0,0,0,.49-.94l.1-.2.11-.21a.41.41,0,0,1,.05-.21l.1-.21,2.71,1.2A24.68,24.68,0,0,1,169.93,41.82Zm-12.07-13c-.12-.24-.42-.36-.91-.36a2.29,2.29,0,0,0-.52.05,3.39,3.39,0,0,0-.52.15,6,6,0,0,0-2,1.46,15.29,15.29,0,0,0-1.77,2.24c-.38.55-.72,1.1-1,1.63a11.38,11.38,0,0,0-.65,1.38c0,.11-.09.28-.18.52a7,7,0,0,0-.23.83l-.21.76a7.08,7.08,0,0,0-.16.8,2.93,2.93,0,0,0-.13.68c0,.24,0,.47,0,.68a2.82,2.82,0,0,0,.26,1.3,1,1,0,0,0,.93.52,3.59,3.59,0,0,0,2.68-1.25,13.32,13.32,0,0,0,2-2.76,10.82,10.82,0,0,0,.78-1.5c.21-.49.4-.92.58-1.31a28.39,28.39,0,0,0,.93-2.8,8.22,8.22,0,0,0,.31-2A2.24,2.24,0,0,0,157.86,28.85Z"/><path class="cls-2" d="M201.72,28.85v.57a4,4,0,0,1-1.17,3A3.64,3.64,0,0,1,198,33.58h-.16a3.42,3.42,0,0,1-2.08-.73,4,4,0,0,1-1.4-2.33,2,2,0,0,0-.39-.71.63.63,0,0,0-.55-.18,1.87,1.87,0,0,0-1.17.6,10.34,10.34,0,0,0-1.38,1.64,17.45,17.45,0,0,0-2.13,3.59,42.41,42.41,0,0,0-1.56,4q-.32.88-.57,1.71c-.17.56-.36,1.11-.57,1.67l-.21.62-.21.63H176L180.3,32a.82.82,0,0,0,.1-.36V31.4a.73.73,0,0,0-.44-.75,2,2,0,0,0-1-.13,3.88,3.88,0,0,0-2.4,1.24,11.12,11.12,0,0,0-1.71,2.34c-.11.18-.21.37-.31.57a4,4,0,0,0-.26.58l-2.6-1a19.54,19.54,0,0,1,4-6.37,9.32,9.32,0,0,1,6.58-3.05,6.19,6.19,0,0,1,.76-.05,7.47,7.47,0,0,1,.8.05,8.87,8.87,0,0,1,3.3.86,6,6,0,0,1,2.53,2.27A25.6,25.6,0,0,1,192,26.35a13.5,13.5,0,0,1,2.63-1.14,7.17,7.17,0,0,1,1.22-.29,9.41,9.41,0,0,1,1.17-.07,6.2,6.2,0,0,1,1.54.2,5.52,5.52,0,0,1,1.43.63,3.49,3.49,0,0,1,1.06,1.14,5,5,0,0,1,.55,1.41A1.91,1.91,0,0,1,201.72,28.85Z"/><path class="cls-2" d="M219.48,35.53a2.84,2.84,0,0,0-.23.5c-.56,1.11-1.17,2.18-1.82,3.22a13.1,13.1,0,0,1-2.4,2.81,9.82,9.82,0,0,1-3.09,1.82,11.69,11.69,0,0,1-4.13.67h-.32a8.21,8.21,0,0,1-2.78-.57,4.52,4.52,0,0,1-2.16-1.77,5.77,5.77,0,0,1-.75-1.66,6.94,6.94,0,0,1-.24-1.82,3.79,3.79,0,0,1,0-.49c0-.16,0-.32.08-.5a12.4,12.4,0,0,1,.29-1.45q.18-.74.39-1.41c.2-.55.4-1.11.59-1.66s.38-1.13.55-1.72.35-1.11.55-1.66.39-1.11.59-1.67H202.4l.88-2.49h2.24c.17-.52.34-1,.52-1.53s.36-1,.57-1.54.35-1,.52-1.48.35-1,.52-1.54l3.43-.49,3.43-.49,1.72-.24,1.72-.23c-.21.62-.43,1.25-.66,1.87s-.44,1.25-.64,1.87-.43,1.26-.65,1.9-.45,1.27-.65,1.9h2.8l-.93,2.49h-2.76c-.24.73-.49,1.47-.75,2.21s-.51,1.5-.76,2.27-.53,1.51-.78,2.26-.5,1.48-.78,2.21c-.07.24-.13.48-.18.7a2.92,2.92,0,0,0-.08.6.83.83,0,0,0,.21.65.85.85,0,0,0,.57.18,1.88,1.88,0,0,0,.71-.16,5.07,5.07,0,0,0,.8-.41c.14-.11.29-.21.44-.31a3.16,3.16,0,0,0,.45-.37,8.33,8.33,0,0,0,1.61-2c.41-.73.79-1.48,1.14-2.24L219.71,35A3.68,3.68,0,0,1,219.48,35.53Z"/></g></g></svg>